<?xml version="1.0" ?><svg viewBox="0 0 64 64" xmlns="http://www.w3.org/2000/svg"><defs><style>.cls-1{fill:#cdd3da;}.cls-2{fill:#ebedf0;}.cls-3{fill:#7fcdee;}.cls-4{fill:#b2e1f5;}.cls-5{fill:#758190;}.cls-6{fill:#acb3bc;}.cls-7{fill:#58616c;}.cls-8{fill:#ed5c58;}.cls-9{fill:#fff;}.cls-10{fill:#9ba0a7;}</style></defs><title/><g data-name="Layer 7" id="Layer_7"><rect class="cls-1" height="44" width="56" x="4" y="14"/><path class="cls-2" d="M4,48.388A41.48,41.48,0,0,0,15.5,50C36.763,50,54,34.106,54,14.5c0-.168-.011-.333-.014-.5H4Z"/><rect class="cls-3" height="10" width="8" x="46" y="18"/><path class="cls-4" d="M46,18V28h5.111a33.1,33.1,0,0,0,2.7-10Z"/><rect class="cls-5" height="12" width="16" x="10" y="46"/><path class="cls-6" d="M10,49.628A42.03,42.03,0,0,0,15.5,50,41.508,41.508,0,0,0,26,48.652V46H10Z"/><rect class="cls-5" height="6" width="60" x="2" y="8"/><path class="cls-6" d="M53.345,8H2v6H53.986A32.926,32.926,0,0,0,53.345,8Z"/><rect class="cls-5" height="12" width="16" x="38" y="46"/><rect class="cls-7" height="4" width="12" x="26" y="54"/><rect class="cls-7" height="4" width="6" x="4" y="54"/><rect class="cls-7" height="4" width="6" x="54" y="54"/><rect class="cls-4" height="10" width="8" x="10" y="18"/><rect class="cls-4" height="10" width="8" x="22" y="18"/><rect class="cls-4" height="10" width="8" x="34" y="18"/><rect class="cls-3" height="10" width="8" x="46" y="32"/><rect class="cls-4" height="10" width="8" x="34" y="32"/><rect class="cls-4" height="10" width="8" x="22" y="32"/><rect class="cls-4" height="10" width="8" x="10" y="32"/><circle class="cls-8" cx="32" cy="11" r="9"/><polygon class="cls-9" points="37 9 34 9 34 6 30 6 30 9 27 9 27 13 30 13 30 16 34 16 34 13 37 13 37 9"/><rect class="cls-10" height="4" width="60" x="2" y="58"/><rect class="cls-7" height="12" width="2" x="45" y="46"/><rect class="cls-7" height="12" width="2" x="17" y="46"/><path class="cls-4" d="M48.992,32H46v4.152A35.36,35.36,0,0,0,48.992,32Z"/></g></svg>